# Blender 4.0.2
# www.blender.org
mtllib cylinder.mtl
o Cylinder
v 0.000000 -85.661324 -42.830662
v 0.000000 85.661324 -42.830662
v 8.355847 -85.661324 -42.007683
v 8.355847 85.661324 -42.007683
v 16.390585 -85.661324 -39.570370
v 16.390585 85.661324 -39.570370
v 23.795441 -85.661324 -35.612392
v 23.795441 85.661324 -35.612392
v 30.285851 -85.661324 -30.285851
v 30.285851 85.661324 -30.285851
v 35.612392 -85.661324 -23.795441
v 35.612392 85.661324 -23.795441
v 39.570370 -85.661324 -16.390585
v 39.570370 85.661324 -16.390585
v 42.007683 -85.661324 -8.355847
v 42.007683 85.661324 -8.355847
v 42.830662 -85.661324 0.000000
v 42.830662 85.661324 0.000000
v 42.007683 -85.661324 8.355847
v 42.007683 85.661324 8.355847
v 39.570370 -85.661324 16.390585
v 39.570370 85.661324 16.390585
v 35.612392 -85.661324 23.795441
v 35.612392 85.661324 23.795441
v 30.285851 -85.661324 30.285851
v 30.285851 85.661324 30.285851
v 23.795441 -85.661324 35.612392
v 23.795441 85.661324 35.612392
v 16.390585 -85.661324 39.570370
v 16.390585 85.661324 39.570370
v 8.355847 -85.661324 42.007683
v 8.355847 85.661324 42.007683
v 0.000000 -85.661324 42.830662
v 0.000000 85.661324 42.830662
v -8.355847 -85.661324 42.007683
v -8.355847 85.661324 42.007683
v -16.390585 -85.661324 39.570370
v -16.390585 85.661324 39.570370
v -23.795441 -85.661324 35.612392
v -23.795441 85.661324 35.612392
v -30.285851 -85.661324 30.285851
v -30.285851 85.661324 30.285851
v -35.612392 -85.661324 23.795441
v -35.612392 85.661324 23.795441
v -39.570370 -85.661324 16.390585
v -39.570370 85.661324 16.390585
v -42.007683 -85.661324 8.355847
v -42.007683 85.661324 8.355847
v -42.830662 -85.661324 0.000000
v -42.830662 85.661324 0.000000
v -42.007683 -85.661324 -8.355847
v -42.007683 85.661324 -8.355847
v -39.570370 -85.661324 -16.390585
v -39.570370 85.661324 -16.390585
v -35.612392 -85.661324 -23.795441
v -35.612392 85.661324 -23.795441
v -30.285851 -85.661324 -30.285851
v -30.285851 85.661324 -30.285851
v -23.795441 -85.661324 -35.612392
v -23.795441 85.661324 -35.612392
v -16.390585 -85.661324 -39.570370
v -16.390585 85.661324 -39.570370
v -8.355847 -85.661324 -42.007683
v -8.355847 85.661324 -42.007683
v 0.000000 -85.661324 -42.830662
v 8.355847 -85.661324 -42.007683
v 8.355847 85.661324 -42.007683
v 0.000000 85.661324 -42.830662
v 16.390585 -85.661324 -39.570370
v 16.390585 85.661324 -39.570370
v 23.795441 -85.661324 -35.612392
v 23.795441 85.661324 -35.612392
v 30.285851 -85.661324 -30.285851
v 30.285851 85.661324 -30.285851
v 35.612392 -85.661324 -23.795441
v 35.612392 85.661324 -23.795441
v 39.570370 -85.661324 -16.390585
v 39.570370 85.661324 -16.390585
v 42.007683 -85.661324 -8.355847
v 42.007683 85.661324 -8.355847
v 42.830662 -85.661324 0.000000
v 42.830662 85.661324 0.000000
v 42.007683 -85.661324 8.355847
v 42.007683 85.661324 8.355847
v 39.570370 -85.661324 16.390585
v 39.570370 85.661324 16.390585
v 35.612392 -85.661324 23.795441
v 35.612392 85.661324 23.795441
v 30.285851 -85.661324 30.285851
v 30.285851 85.661324 30.285851
v 23.795441 -85.661324 35.612392
v 23.795441 85.661324 35.612392
v 16.390585 -85.661324 39.570370
v 16.390585 85.661324 39.570370
v 8.355847 -85.661324 42.007683
v 8.355847 85.661324 42.007683
v 0.000000 -85.661324 42.830662
v 0.000000 85.661324 42.830662
v -8.355847 -85.661324 42.007683
v -8.355847 85.661324 42.007683
v -16.390585 -85.661324 39.570370
v -16.390585 85.661324 39.570370
v -23.795441 -85.661324 35.612392
v -23.795441 85.661324 35.612392
v -30.285851 -85.661324 30.285851
v -30.285851 85.661324 30.285851
v -35.612392 -85.661324 23.795441
v -35.612392 85.661324 23.795441
v -39.570370 -85.661324 16.390585
v -39.570370 85.661324 16.390585
v -42.007683 -85.661324 8.355847
v -42.007683 85.661324 8.355847
v -42.830662 -85.661324 0.000000
v -42.830662 85.661324 0.000000
v -42.007683 -85.661324 -8.355847
v -42.007683 85.661324 -8.355847
v -39.570370 -85.661324 -16.390585
v -39.570370 85.661324 -16.390585
v -35.612392 -85.661324 -23.795441
v -35.612392 85.661324 -23.795441
v -30.285851 -85.661324 -30.285851
v -30.285851 85.661324 -30.285851
v -23.795441 -85.661324 -35.612392
v -23.795441 85.661324 -35.612392
v -16.390585 -85.661324 -39.570370
v -16.390585 85.661324 -39.570370
v -8.355847 -85.661324 -42.007683
v -8.355847 85.661324 -42.007683
v -0.000021 -431.275208 -42.830662
v 8.355827 -431.275208 -42.007683
v 8.355827 -259.952576 -42.007683
v -0.000021 -259.952576 -42.830662
v 16.390566 -431.275208 -39.570370
v 16.390566 -259.952576 -39.570370
v 23.795422 -431.275208 -35.612392
v 23.795422 -259.952576 -35.612392
v 30.285830 -431.275208 -30.285851
v 30.285830 -259.952576 -30.285851
v 35.612373 -431.275208 -23.795441
v 35.612373 -259.952576 -23.795441
v 39.570351 -431.275208 -16.390585
v 39.570351 -259.952576 -16.390585
v 42.007660 -431.275208 -8.355847
v 42.007660 -259.952576 -8.355847
v 42.830643 -431.275208 0.000000
v 42.830643 -259.952576 0.000000
v 42.007660 -431.275208 8.355847
v 42.007660 -259.952576 8.355847
v 39.570351 -431.275208 16.390585
v 39.570351 -259.952576 16.390585
v 35.612373 -431.275208 23.795441
v 35.612373 -259.952576 23.795441
v 30.285830 -431.275208 30.285851
v 30.285830 -259.952576 30.285851
v 23.795422 -431.275208 35.612392
v 23.795422 -259.952576 35.612392
v 16.390566 -431.275208 39.570370
v 16.390566 -259.952576 39.570370
v 8.355827 -431.275208 42.007683
v 8.355827 -259.952576 42.007683
v -0.000021 -431.275208 42.830662
v -0.000021 -259.952576 42.830662
v -8.355868 -431.275208 42.007683
v -8.355868 -259.952576 42.007683
v -16.390606 -431.275208 39.570370
v -16.390606 -259.952576 39.570370
v -23.795462 -431.275208 35.612392
v -23.795462 -259.952576 35.612392
v -30.285872 -431.275208 30.285851
v -30.285872 -259.952576 30.285851
v -35.612415 -431.275208 23.795441
v -35.612415 -259.952576 23.795441
v -39.570393 -431.275208 16.390585
v -39.570393 -259.952576 16.390585
v -42.007702 -431.275208 8.355847
v -42.007702 -259.952576 8.355847
v -42.830681 -431.275208 0.000000
v -42.830681 -259.952576 0.000000
v -42.007702 -431.275208 -8.355847
v -42.007702 -259.952576 -8.355847
v -39.570393 -431.275208 -16.390585
v -39.570393 -259.952576 -16.390585
v -35.612415 -431.275208 -23.795441
v -35.612415 -259.952576 -23.795441
v -30.285872 -431.275208 -30.285851
v -30.285872 -259.952576 -30.285851
v -23.795462 -431.275208 -35.612392
v -23.795462 -259.952576 -35.612392
v -16.390606 -431.275208 -39.570370
v -16.390606 -259.952576 -39.570370
v -8.355868 -431.275208 -42.007683
v -8.355868 -259.952576 -42.007683
vn 0.0980 -0.0000 -0.9952
vn 0.2903 -0.0000 -0.9569
vn 0.4714 -0.0000 -0.8819
vn 0.6344 -0.0000 -0.7730
vn 0.7730 -0.0000 -0.6344
vn 0.8819 -0.0000 -0.4714
vn 0.9569 -0.0000 -0.2903
vn 0.9952 -0.0000 -0.0980
vn 0.9952 -0.0000 0.0980
vn 0.9569 -0.0000 0.2903
vn 0.8819 -0.0000 0.4714
vn 0.7730 -0.0000 0.6344
vn 0.6344 -0.0000 0.7730
vn 0.4714 -0.0000 0.8819
vn 0.2903 -0.0000 0.9569
vn 0.0980 -0.0000 0.9952
vn -0.0980 -0.0000 0.9952
vn -0.2903 -0.0000 0.9569
vn -0.4714 -0.0000 0.8819
vn -0.6344 -0.0000 0.7730
vn -0.7730 -0.0000 0.6344
vn -0.8819 -0.0000 0.4714
vn -0.9569 -0.0000 0.2903
vn -0.9952 -0.0000 0.0980
vn -0.9952 -0.0000 -0.0980
vn -0.9569 -0.0000 -0.2903
vn -0.8819 -0.0000 -0.4714
vn -0.7730 -0.0000 -0.6344
vn -0.6344 -0.0000 -0.7730
vn -0.4714 -0.0000 -0.8819
vn -0.0000 1.0000 -0.0000
vn -0.2903 -0.0000 -0.9569
vn -0.0980 -0.0000 -0.9952
vt 1.000000 0.500000
vt 1.000000 1.000000
vt 0.968750 1.000000
vt 0.968750 0.500000
vt 0.937500 1.000000
vt 0.937500 0.500000
vt 0.906250 1.000000
vt 0.906250 0.500000
vt 0.875000 1.000000
vt 0.875000 0.500000
vt 0.843750 1.000000
vt 0.843750 0.500000
vt 0.812500 1.000000
vt 0.812500 0.500000
vt 0.781250 1.000000
vt 0.781250 0.500000
vt 0.750000 1.000000
vt 0.750000 0.500000
vt 0.718750 1.000000
vt 0.718750 0.500000
vt 0.687500 1.000000
vt 0.687500 0.500000
vt 0.656250 1.000000
vt 0.656250 0.500000
vt 0.625000 1.000000
vt 0.625000 0.500000
vt 0.593750 1.000000
vt 0.593750 0.500000
vt 0.562500 1.000000
vt 0.562500 0.500000
vt 0.531250 1.000000
vt 0.531250 0.500000
vt 0.500000 1.000000
vt 0.500000 0.500000
vt 0.468750 1.000000
vt 0.468750 0.500000
vt 0.437500 1.000000
vt 0.437500 0.500000
vt 0.406250 1.000000
vt 0.406250 0.500000
vt 0.375000 1.000000
vt 0.375000 0.500000
vt 0.343750 1.000000
vt 0.343750 0.500000
vt 0.312500 1.000000
vt 0.312500 0.500000
vt 0.281250 1.000000
vt 0.281250 0.500000
vt 0.250000 1.000000
vt 0.250000 0.500000
vt 0.218750 1.000000
vt 0.218750 0.500000
vt 0.187500 1.000000
vt 0.187500 0.500000
vt 0.156250 1.000000
vt 0.156250 0.500000
vt 0.125000 1.000000
vt 0.125000 0.500000
vt 0.093750 1.000000
vt 0.093750 0.500000
vt 0.062500 1.000000
vt 0.062500 0.500000
vt 0.031250 1.000000
vt 0.031250 0.500000
vt 0.000000 1.000000
vt 0.000000 0.500000
s 0
f 1/1/1 2/2/1 4/3/1 3/4/1
f 3/4/2 4/3/2 6/5/2 5/6/2
f 5/6/3 6/5/3 8/7/3 7/8/3
f 7/8/4 8/7/4 10/9/4 9/10/4
f 9/10/5 10/9/5 12/11/5 11/12/5
f 11/12/6 12/11/6 14/13/6 13/14/6
f 13/14/7 14/13/7 16/15/7 15/16/7
f 15/16/8 16/15/8 18/17/8 17/18/8
f 17/18/9 18/17/9 20/19/9 19/20/9
f 19/20/10 20/19/10 22/21/10 21/22/10
f 21/22/11 22/21/11 24/23/11 23/24/11
f 23/24/12 24/23/12 26/25/12 25/26/12
f 25/26/13 26/25/13 28/27/13 27/28/13
f 27/28/14 28/27/14 30/29/14 29/30/14
f 29/30/15 30/29/15 32/31/15 31/32/15
f 31/32/16 32/31/16 34/33/16 33/34/16
f 33/34/17 34/33/17 36/35/17 35/36/17
f 35/36/18 36/35/18 38/37/18 37/38/18
f 37/38/19 38/37/19 40/39/19 39/40/19
f 39/40/20 40/39/20 42/41/20 41/42/20
f 41/42/21 42/41/21 44/43/21 43/44/21
f 43/44/22 44/43/22 46/45/22 45/46/22
f 45/46/23 46/45/23 48/47/23 47/48/23
f 47/48/24 48/47/24 50/49/24 49/50/24
f 49/50/25 50/49/25 52/51/25 51/52/25
f 51/52/26 52/51/26 54/53/26 53/54/26
f 53/54/27 54/53/27 56/55/27 55/56/27
f 55/56/28 56/55/28 58/57/28 57/58/28
f 57/58/29 58/57/29 60/59/29 59/60/29
f 59/60/30 60/59/30 62/61/30 61/62/30
f 38/37/31 36/35/31 100/35/31 102/37/31
f 61/62/32 62/61/32 64/63/32 63/64/32
f 63/64/33 64/63/33 2/65/33 1/66/33
f 53/54/31 55/56/31 119/56/31 117/54/31
f 101/38/19 103/40/19 167/40/19 165/38/19
f 127/64/33 65/66/33 129/66/33 191/64/33
f 4/3/31 2/2/31 68/2/31 67/3/31
f 56/55/31 54/53/31 118/53/31 120/55/31
f 19/20/31 21/22/31 85/22/31 83/20/31
f 37/38/31 39/40/31 103/40/31 101/38/31
f 22/21/31 20/19/31 84/19/31 86/21/31
f 55/56/31 57/58/31 121/58/31 119/56/31
f 40/39/31 38/37/31 102/37/31 104/39/31
f 3/4/31 5/6/31 69/6/31 66/4/31
f 58/57/31 56/55/31 120/55/31 122/57/31
f 21/22/31 23/24/31 87/24/31 85/22/31
f 6/5/31 4/3/31 67/3/31 70/5/31
f 39/40/31 41/42/31 105/42/31 103/40/31
f 24/23/31 22/21/31 86/21/31 88/23/31
f 57/58/31 59/60/31 123/60/31 121/58/31
f 42/41/31 40/39/31 104/39/31 106/41/31
f 5/6/31 7/8/31 71/8/31 69/6/31
f 60/59/31 58/57/31 122/57/31 124/59/31
f 23/24/31 25/26/31 89/26/31 87/24/31
f 8/7/31 6/5/31 70/5/31 72/7/31
f 41/42/31 43/44/31 107/44/31 105/42/31
f 26/25/31 24/23/31 88/23/31 90/25/31
f 59/60/31 61/62/31 125/62/31 123/60/31
f 44/43/31 42/41/31 106/41/31 108/43/31
f 7/8/31 9/10/31 73/10/31 71/8/31
f 62/61/31 60/59/31 124/59/31 126/61/31
f 25/26/31 27/28/31 91/28/31 89/26/31
f 10/9/31 8/7/31 72/7/31 74/9/31
f 43/44/31 45/46/31 109/46/31 107/44/31
f 28/27/31 26/25/31 90/25/31 92/27/31
f 61/62/31 63/64/31 127/64/31 125/62/31
f 46/45/31 44/43/31 108/43/31 110/45/31
f 9/10/31 11/12/31 75/12/31 73/10/31
f 64/63/31 62/61/31 126/61/31 128/63/31
f 27/28/31 29/30/31 93/30/31 91/28/31
f 12/11/31 10/9/31 74/9/31 76/11/31
f 45/46/31 47/48/31 111/48/31 109/46/31
f 30/29/31 28/27/31 92/27/31 94/29/31
f 63/64/31 1/66/31 65/66/31 127/64/31
f 48/47/31 46/45/31 110/45/31 112/47/31
f 11/12/31 13/14/31 77/14/31 75/12/31
f 2/65/31 64/63/31 128/63/31 68/65/31
f 29/30/31 31/32/31 95/32/31 93/30/31
f 14/13/31 12/11/31 76/11/31 78/13/31
f 47/48/31 49/50/31 113/50/31 111/48/31
f 32/31/31 30/29/31 94/29/31 96/31/31
f 50/49/31 48/47/31 112/47/31 114/49/31
f 13/14/31 15/16/31 79/16/31 77/14/31
f 31/32/31 33/34/31 97/34/31 95/32/31
f 16/15/31 14/13/31 78/13/31 80/15/31
f 49/50/31 51/52/31 115/52/31 113/50/31
f 34/33/31 32/31/31 96/31/31 98/33/31
f 52/51/31 50/49/31 114/49/31 116/51/31
f 15/16/31 17/18/31 81/18/31 79/16/31
f 33/34/31 35/36/31 99/36/31 97/34/31
f 18/17/31 16/15/31 80/15/31 82/17/31
f 51/52/31 53/54/31 117/54/31 115/52/31
f 36/35/31 34/33/31 98/33/31 100/35/31
f 54/53/31 52/51/31 116/51/31 118/53/31
f 17/18/31 19/20/31 83/20/31 81/18/31
f 35/36/31 37/38/31 101/38/31 99/36/31
f 20/19/31 18/17/31 82/17/31 84/19/31
f 1/1/31 3/4/31 66/4/31 65/1/31
f 75/12/6 77/14/6 141/14/6 139/12/6
f 68/65/16 128/63/16 192/63/16 132/65/16
f 104/39/3 102/37/3 166/37/3 168/39/3
f 78/13/22 76/11/22 140/11/22 142/13/22
f 103/40/20 105/42/20 169/42/20 167/40/20
f 77/14/7 79/16/7 143/16/7 141/14/7
f 106/41/4 104/39/4 168/39/4 170/41/4
f 80/15/23 78/13/23 142/13/23 144/15/23
f 105/42/21 107/44/21 171/44/21 169/42/21
f 79/16/8 81/18/8 145/18/8 143/16/8
f 108/43/5 106/41/5 170/41/5 172/43/5
f 82/17/24 80/15/24 144/15/24 146/17/24
f 107/44/22 109/46/22 173/46/22 171/44/22
f 81/18/9 83/20/9 147/20/9 145/18/9
f 110/45/6 108/43/6 172/43/6 174/45/6
f 84/19/25 82/17/25 146/17/25 148/19/25
f 109/46/23 111/48/23 175/48/23 173/46/23
f 83/20/10 85/22/10 149/22/10 147/20/10
f 112/47/7 110/45/7 174/45/7 176/47/7
f 86/21/26 84/19/26 148/19/26 150/21/26
f 111/48/24 113/50/24 177/50/24 175/48/24
f 85/22/11 87/24/11 151/24/11 149/22/11
f 114/49/8 112/47/8 176/47/8 178/49/8
f 88/23/27 86/21/27 150/21/27 152/23/27
f 113/50/25 115/52/25 179/52/25 177/50/25
f 87/24/12 89/26/12 153/26/12 151/24/12
f 116/51/9 114/49/9 178/49/9 180/51/9
f 90/25/28 88/23/28 152/23/28 154/25/28
f 115/52/26 117/54/26 181/54/26 179/52/26
f 89/26/13 91/28/13 155/28/13 153/26/13
f 118/53/10 116/51/10 180/51/10 182/53/10
f 92/27/29 90/25/29 154/25/29 156/27/29
f 117/54/27 119/56/27 183/56/27 181/54/27
f 91/28/14 93/30/14 157/30/14 155/28/14
f 65/1/1 66/4/1 130/4/1 129/1/1
f 120/55/11 118/53/11 182/53/11 184/55/11
f 94/29/30 92/27/30 156/27/30 158/29/30
f 67/3/17 68/2/17 132/2/17 131/3/17
f 119/56/28 121/58/28 185/58/28 183/56/28
f 93/30/15 95/32/15 159/32/15 157/30/15
f 66/4/2 69/6/2 133/6/2 130/4/2
f 122/57/12 120/55/12 184/55/12 186/57/12
f 96/31/32 94/29/32 158/29/32 160/31/32
f 70/5/18 67/3/18 131/3/18 134/5/18
f 121/58/29 123/60/29 187/60/29 185/58/29
f 95/32/16 97/34/16 161/34/16 159/32/16
f 69/6/3 71/8/3 135/8/3 133/6/3
f 124/59/13 122/57/13 186/57/13 188/59/13
f 98/33/33 96/31/33 160/31/33 162/33/33
f 72/7/19 70/5/19 134/5/19 136/7/19
f 123/60/30 125/62/30 189/62/30 187/60/30
f 97/34/17 99/36/17 163/36/17 161/34/17
f 71/8/4 73/10/4 137/10/4 135/8/4
f 126/61/14 124/59/14 188/59/14 190/61/14
f 100/35/1 98/33/1 162/33/1 164/35/1
f 74/9/20 72/7/20 136/7/20 138/9/20
f 125/62/32 127/64/32 191/64/32 189/62/32
f 99/36/18 101/38/18 165/38/18 163/36/18
f 73/10/5 75/12/5 139/12/5 137/10/5
f 128/63/15 126/61/15 190/61/15 192/63/15
f 102/37/2 100/35/2 164/35/2 166/37/2
f 76/11/21 74/9/21 138/9/21 140/11/21
